<?xml version="1.0" encoding="iso-8859-1"?>
<!-- Generator: Adobe Illustrator 19.1.0, SVG Export Plug-In . SVG Version: 6.00 Build 0)  -->
<svg fill="white" version="1.1" id="Capa_1" xmlns="http://www.w3.org/2000/svg" xmlns:xlink="http://www.w3.org/1999/xlink" x="0px" y="0px"
	 viewBox="0 0 43.418 43.418" style="enable-background:new 0 0 43.418 43.418;" xml:space="preserve">
<g>
	<g>
		<path d="M8.02,21.76c0,7.583,6.169,13.752,13.751,13.752c7.583,0,13.752-6.169,13.752-13.752S29.354,8.008,21.771,8.008
			C14.189,8.008,8.02,14.177,8.02,21.76z M21.771,12.008c5.377,0,9.752,4.375,9.752,9.752s-4.375,9.752-9.752,9.752
			s-9.751-4.375-9.751-9.752S16.394,12.008,21.771,12.008z"/>
		<circle cx="21.709" cy="2.71" r="2.709"/>
		<circle cx="21.708" cy="40.709" r="2.708"/>
		<circle cx="2.709" cy="21.709" r="2.709"/>
		<circle cx="40.709" cy="21.71" r="2.709"/>
		<circle cx="8.273" cy="8.275" r="2.709"/>
		<circle cx="35.143" cy="35.144" r="2.708"/>
		<circle cx="8.274" cy="35.144" r="2.709"/>
		<circle cx="35.144" cy="8.274" r="2.709"/>
	</g>
</g>
<g>
</g>
<g>
</g>
<g>
</g>
<g>
</g>
<g>
</g>
<g>
</g>
<g>
</g>
<g>
</g>
<g>
</g>
<g>
</g>
<g>
</g>
<g>
</g>
<g>
</g>
<g>
</g>
<g>
</g>
</svg>
