<?xml version='1.0' encoding='iso-8859-1'?>
<svg style="fill: white;" version="1.1" xmlns="http://www.w3.org/2000/svg" viewBox="0 0 281.9 281.9" xmlns:xlink="http://www.w3.org/1999/xlink" enable-background="new 0 0 281.9 281.9">
  <g>
    <g>
      <path d="m203.594,36.543c-5.22-1.74-10.441,0-12.181,3.48-1.74,5.22 0,10.441 3.48,12.181 36.543,20.882 59.164,57.424 59.164,99.187 0,62.644-50.463,113.108-113.108,113.108s-113.107-50.463-113.107-113.108c0-41.763 22.621-80.046 59.164-99.187 3.48-3.48 5.22-8.701 3.48-12.181-3.48-3.48-8.701-5.22-12.181-3.48-41.763,24.362-67.865,67.865-67.865,114.848 0,71.345 59.164,130.509 130.509,130.509s130.509-59.164 130.509-130.509c0.001-48.723-26.101-92.226-67.864-114.848z"/>
      <path d="m140.95,104.407c5.22,0 8.701-3.48 8.701-8.701v-87.005c0-5.22-3.48-8.701-8.701-8.701-5.22,0-8.701,3.48-8.701,8.701v87.006c0,5.22 3.48,8.7 8.701,8.7z"/>
    </g>
  </g>
</svg>
